<?xml version="1.0" encoding="UTF-8"?>
<svg width="33px" height="40px" viewBox="0 0 33 40" version="1.1" xmlns="http://www.w3.org/2000/svg" xmlns:xlink="http://www.w3.org/1999/xlink">
    <title>Group</title>
    <g id="Page-1" stroke="none" stroke-width="1" fill="none" fill-rule="evenodd">
        <g id="Group" transform="translate(0.500000, 0.000000)" fill-rule="nonzero">
            <g id="logo" transform="translate(0.960000, 0.000000)">
                <path d="M15.0758667,8.99525333 C17.2732,8.99926667 19.1908,10.1917467 20.2294667,11.96048 L27.9477333,7.41461333 C24.596,1.70426667 18.2718667,-1.05686 11.8119867,0.371725333 L13.7456,9.14732 C14.1730667,9.05128 14.6165333,8.99525333 15.0758667,8.99525333 Z" id="Path" fill="#644399"></path>
                <path d="M27.9478667,7.41861333 L20.2296,11.96048 C20.7569333,12.85284 21.0605333,13.8933333 21.0605333,15.0057333 C21.0565333,16.5424 20.4772,17.9389333 19.5264,18.9993333 L26.246,24.9658667 C30.6325333,20.0077333 31.2997333,13.12896 27.9478667,7.41861333 Z" id="Path" fill="#855ACC"></path>
                <path d="M19.5264,18.9993333 C18.4277333,20.2278667 16.8337333,21.0041333 15.0598667,21.0001333 C14.2050667,21.0001333 13.394,20.8161333 12.6589333,20.492 L9.05545333,28.7633333 C15.1198667,31.4124 21.8554667,29.9238667 26.2418667,24.9658667 L19.5264,18.9993333 Z" id="Path" fill="#A670FF"></path>
                <path d="M13.7453333,9.14734667 L11.8118133,0.371749333 C5.35190667,1.80033333 0.77764,6.96645333 0.138438667,13.5652 L9.10321333,14.4374667 C9.34290667,11.82844 11.24852,9.71157333 13.7453333,9.14734667 Z" id="Path" fill="#A670FF"></path>
                <path d="M12.6549333,20.492 C10.5455467,19.5596 9.07138667,17.4468 9.07138667,14.9897333 C9.07138667,14.8017333 9.08337333,14.6176 9.09936,14.4374667 L0.138576,13.5652 C0.074656,14.2014667 0.0666666667,16.2022667 0.0666666667,16.2022667 L0.0666666667,35.4981333 C0.0666666667,37.9832 2.08014667,40 4.56104,40 C7.04193333,40 9.05541333,37.9872 9.05541333,35.5021333 L9.05541333,28.7634667 L12.6549333,20.492 Z" id="Path" fill="#C6A3FF"></path>
            </g>
        </g>
    </g>
</svg>