<svg width="644" height="819" viewBox="0 0 644 819" fill="none" xmlns="http://www.w3.org/2000/svg">
<path d="M223.054 795.495C267.081 835.488 335.871 811.89 419.721 813.274C503.571 814.658 480.856 714.868 538.413 672.449C595.969 630.031 629.759 558.681 576.398 497.661C523.037 436.641 497.691 427.926 454.663 426.76C411.635 425.595 330.838 440.222 271.518 484.349C212.198 528.476 179.027 755.501 223.054 795.495Z" fill="#A9D6FF"/>
<path d="M148.55 91.0058C104.573 136.045 129.628 274.208 170.815 291.775C212.002 309.342 329.576 291.522 407.866 359.351C486.156 427.179 584.281 406.332 619.292 326.282C654.303 246.231 607.904 219.035 548.5 162C489.096 104.965 505.744 45.5699 425.096 11.7181C344.448 -22.1336 192.527 45.9667 148.55 91.0058Z" fill="#C6A3FF"/>
<path d="M185.069 583.711C236.597 599.321 281.236 566.339 326.179 522.617C371.123 478.896 263.101 388.285 293.51 306.256C323.92 224.226 274.675 160.208 197.183 163.976C119.69 167.745 92.5147 216.25 76.1249 268.065C59.7351 319.88 2.60875 349.769 1.00786 421.069C-0.593009 492.369 133.541 568.101 185.069 583.711Z" fill="#9ADCA5"/>
<circle cx="21.5" cy="527.5" r="9.5" fill="#80C2FF"/>
<circle cx="626.5" cy="157.5" r="9.5" fill="#FFDC7B"/>
<circle cx="630.5" cy="428.5" r="13.5" fill="#9ADCA5"/>
<circle cx="122.5" cy="767.5" r="13.5" fill="#FFA9A9"/>
<circle cx="524" cy="60" r="7" fill="#FFA9A9"/>
<circle cx="12" cy="621" r="7" fill="#FFDC7B"/>
</svg>
