<?xml version="1.0" encoding="UTF-8"?>
<svg width="256px" height="256px" viewBox="0 0 256 256" version="1.1" xmlns="http://www.w3.org/2000/svg" xmlns:xlink="http://www.w3.org/1999/xlink">
    <title>Artboard</title>
    <g id="Artboard" stroke="none" stroke-width="1" fill="none" fill-rule="evenodd">
        <g id="logo" transform="translate(29.866667, 0.000000)" fill-rule="nonzero">
            <path d="M96.4855467,57.5696213 C110.54848,57.5953067 122.82112,65.2271787 129.468587,76.547072 L178.865493,47.4535253 C157.4144,10.9073067 116.939947,-6.763904 75.5967147,2.37904213 L87.97184,58.542848 C90.7076267,57.928192 93.5458133,57.5696213 96.4855467,57.5696213 Z" id="Path" fill="#644399"></path>
            <path d="M178.866347,47.4791253 L129.46944,76.547072 C132.844373,82.258176 134.787413,88.9173333 134.787413,96.0366933 C134.761813,105.87136 131.05408,114.809173 124.96896,121.595733 L167.9744,159.781547 C196.048213,128.049493 200.318293,84.025344 178.866347,47.4791253 Z" id="Path" fill="#855ACC"></path>
            <path d="M124.96896,121.595733 C117.937493,129.458347 107.735893,134.426453 96.3831467,134.400853 C90.9124267,134.400853 85.7216,133.223253 81.0171733,131.1488 L57.9549013,184.085333 C96.7671467,201.03936 139.874987,191.512747 167.947947,159.781547 L124.96896,121.595733 Z" id="Path" fill="#A670FF"></path>
            <path d="M87.9701333,58.5430187 L75.5956053,2.37919573 C34.2522027,11.5221333 4.976896,44.5853013 0.886007467,86.81728 L58.2605653,92.3997867 C59.7946027,75.702016 71.990528,62.1540693 87.9701333,58.5430187 Z" id="Path" fill="#A670FF"></path>
            <path d="M80.9915733,131.1488 C67.4914987,125.18144 58.0568747,111.65952 58.0568747,95.9342933 C58.0568747,94.7310933 58.1335893,93.55264 58.235904,92.3997867 L0.8868864,86.81728 C0.4777984,90.8893867 0.426666667,103.694507 0.426666667,103.694507 L0.426666667,227.188053 C0.426666667,243.09248 13.3129387,256 29.190656,256 C45.0683733,256 57.9546453,243.11808 57.9546453,227.213653 L57.9546453,184.086187 L80.9915733,131.1488 Z" id="Path" fill="#C6A3FF"></path>
        </g>
    </g>
</svg>